<?xml version="1.0" standalone="no"?>
<!DOCTYPE svg PUBLIC "-//W3C//DTD SVG 20010904//EN"
 "http://www.w3.org/TR/2001/REC-SVG-20010904/DTD/svg10.dtd">
<svg version="1.0" xmlns="http://www.w3.org/2000/svg"
 width="200.000000pt" height="200.000000pt" viewBox="0 0 200.000000 200.000000"
 preserveAspectRatio="xMidYMid meet">
<metadata>
Created by potrace 1.14, written by Peter Selinger 2001-2017
</metadata>
<g transform="translate(0.000000,200.000000) scale(0.100000,-0.100000)"
fill="#000000" stroke="none">
<path d="M1119 1804 c30 -8 76 -26 103 -41 64 -35 169 -131 205 -188 15 -25
31 -45 35 -45 26 0 88 115 88 162 0 40 -308 129 -439 127 l-46 0 54 -15z"/>
<path d="M790 1787 c-171 -61 -296 -196 -315 -342 l-6 -50 38 70 c91 167 192
268 321 321 73 30 47 30 -38 1z"/>
<path d="M861 1751 c-133 -50 -251 -164 -328 -319 -59 -120 -61 -156 -12 -238
63 -105 165 -170 444 -279 188 -74 238 -100 298 -154 101 -91 101 -240 0 -317
-70 -53 -126 -68 -258 -68 -133 -1 -193 12 -335 69 -46 19 -86 32 -88 30 -2
-2 34 -42 79 -88 62 -62 102 -93 154 -118 67 -33 75 -34 185 -34 110 0 118 1
185 34 106 51 216 167 278 291 26 52 56 132 67 177 25 98 20 114 -61 187 -80
72 -166 117 -391 206 -294 116 -353 162 -353 281 0 66 33 124 93 164 100 66
290 73 465 16 55 -18 101 -31 103 -28 12 12 -141 138 -203 168 -61 30 -79 33
-168 36 -81 3 -110 0 -154 -16z"/>
<path d="M1557 701 c-63 -243 -245 -453 -438 -505 -75 -20 -21 -21 79 0 172
34 294 120 360 253 36 72 37 79 37 180 0 139 -14 166 -38 72z"/>
<path d="M463 487 c-41 -44 -69 -107 -60 -131 7 -19 97 -69 192 -107 88 -35
238 -69 300 -68 l40 0 -54 15 c-121 32 -247 132 -327 259 -26 41 -48 75 -49
75 -2 0 -20 -20 -42 -43z"/>
</g>
</svg>
